<svg width="567" height="105" viewBox="0 0 567 105" fill="none" xmlns="http://www.w3.org/2000/svg">
<circle cx="40.375" cy="52.5" r="14.875" fill="#333333"/>
<path d="M38.25 20.625H15.5833C13.7047 20.625 11.903 21.3713 10.5747 22.6997C9.24628 24.028 8.5 25.8297 8.5 27.7083V38.3333M38.25 84.375H65.1667C67.0453 84.375 68.847 83.6287 70.1753 82.3003C71.5037 80.972 72.25 79.1703 72.25 77.2917V66.6667" stroke="#333333" stroke-width="7.08333" stroke-linecap="round" stroke-linejoin="round"/>
<path d="M106.25 19.5016C107.95 19.5696 110.228 19.6376 113.084 19.7056C116.008 19.7736 118.898 19.8076 121.754 19.8076C125.018 19.8076 128.18 19.7736 131.24 19.7056C134.3 19.6376 136.476 19.6036 137.768 19.6036C147.22 19.6036 154.292 21.4736 158.984 25.2136C163.676 28.9536 166.022 33.7816 166.022 39.6976C166.022 42.1456 165.546 44.7296 164.594 47.4496C163.642 50.1016 162.01 52.5836 159.698 54.8956C157.454 57.1396 154.36 58.9756 150.416 60.4036C146.472 61.8316 141.508 62.5456 135.524 62.5456H125.12V60.5056H134.504C138.516 60.5056 141.542 59.5876 143.582 57.7516C145.69 55.9156 147.118 53.5016 147.866 50.5096C148.682 47.5176 149.09 44.2876 149.09 40.8196C149.09 34.3596 148.138 29.5316 146.234 26.3356C144.33 23.1396 141.066 21.5416 136.442 21.5416C133.79 21.5416 132.056 22.1196 131.24 23.2756C130.492 24.4316 130.118 26.7776 130.118 30.3136V80.2936C130.118 82.9456 130.39 84.9176 130.934 86.2096C131.478 87.5016 132.532 88.3516 134.096 88.7596C135.66 89.1676 137.972 89.4056 141.032 89.4736V91.7176C138.924 91.6496 136.204 91.5816 132.872 91.5136C129.54 91.4456 126.038 91.4116 122.366 91.4116C119.442 91.4116 116.586 91.4456 113.798 91.5136C111.01 91.5816 108.494 91.6496 106.25 91.7176V89.6776C108.426 89.5416 110.058 89.2696 111.146 88.8616C112.234 88.4536 112.948 87.6376 113.288 86.4136C113.696 85.1896 113.9 83.3536 113.9 80.9056V30.3136C113.9 27.7976 113.696 25.9616 113.288 24.8056C112.948 23.5816 112.2 22.7656 111.044 22.3576C109.956 21.8816 108.358 21.6096 106.25 21.5416V19.5016Z" fill="#333333"/>
<path d="M190.284 11.9536V47.0416C191.984 43.5056 194.262 41.0576 197.118 39.6976C200.042 38.2696 203.306 37.5556 206.91 37.5556C209.834 37.5556 212.18 37.9296 213.948 38.6776C215.716 39.3576 217.11 40.3096 218.13 41.5336C219.286 42.8256 220.102 44.4916 220.578 46.5316C221.122 48.5716 221.394 51.3256 221.394 54.7936V82.2316C221.394 85.0876 221.87 87.0256 222.822 88.0456C223.842 89.0656 225.542 89.5756 227.922 89.5756V91.7176C226.63 91.6496 224.658 91.5816 222.006 91.5136C219.422 91.3776 216.906 91.3096 214.458 91.3096C211.806 91.3096 209.222 91.3776 206.706 91.5136C204.258 91.5816 202.422 91.6496 201.198 91.7176V89.5756C203.238 89.5756 204.666 89.0656 205.482 88.0456C206.298 87.0256 206.706 85.0876 206.706 82.2316V50.5096C206.706 48.8096 206.536 47.3476 206.196 46.1236C205.856 44.8316 205.21 43.8456 204.258 43.1656C203.374 42.4176 202.082 42.0436 200.382 42.0436C197.594 42.0436 195.214 43.1316 193.242 45.3076C191.27 47.4836 190.284 50.3056 190.284 53.7736V82.2316C190.284 85.0876 190.692 87.0256 191.508 88.0456C192.324 89.0656 193.752 89.5756 195.792 89.5756V91.7176C194.568 91.6496 192.766 91.5816 190.386 91.5136C188.006 91.3776 185.592 91.3096 183.144 91.3096C180.492 91.3096 177.806 91.3776 175.086 91.5136C172.434 91.5816 170.428 91.6496 169.068 91.7176V89.5756C171.448 89.5756 173.114 89.0656 174.066 88.0456C175.086 87.0256 175.596 85.0876 175.596 82.2316V24.1936C175.596 21.1336 175.12 18.8896 174.168 17.4616C173.284 15.9656 171.584 15.2176 169.068 15.2176V13.0756C171.244 13.2796 173.352 13.3816 175.392 13.3816C178.18 13.3816 180.832 13.2796 183.348 13.0756C185.864 12.8036 188.176 12.4296 190.284 11.9536Z" fill="#333333"/>
<path d="M257.95 37.5556C262.914 37.5556 267.266 38.4736 271.006 40.3096C274.746 42.1456 277.67 45.1036 279.778 49.1836C281.886 53.2636 282.94 58.6696 282.94 65.4016C282.94 72.1336 281.886 77.5396 279.778 81.6196C277.67 85.6316 274.746 88.5556 271.006 90.3916C267.266 92.2276 262.914 93.1456 257.95 93.1456C253.122 93.1456 248.804 92.2276 244.996 90.3916C241.256 88.5556 238.298 85.6316 236.122 81.6196C234.014 77.5396 232.96 72.1336 232.96 65.4016C232.96 58.6696 234.014 53.2636 236.122 49.1836C238.298 45.1036 241.256 42.1456 244.996 40.3096C248.804 38.4736 253.122 37.5556 257.95 37.5556ZM257.95 39.5956C255.23 39.5956 252.952 41.6356 251.116 45.7156C249.28 49.7276 248.362 56.2896 248.362 65.4016C248.362 74.5136 249.28 81.0756 251.116 85.0876C252.952 89.0996 255.23 91.1056 257.95 91.1056C260.738 91.1056 263.016 89.0996 264.784 85.0876C266.62 81.0756 267.538 74.5136 267.538 65.4016C267.538 56.2896 266.62 49.7276 264.784 45.7156C263.016 41.6356 260.738 39.5956 257.95 39.5956Z" fill="#333333"/>
<path d="M310.014 22.2556V38.9836H322.05V41.0236H310.014V82.2316C310.014 84.2716 310.388 85.7336 311.136 86.6176C311.884 87.4336 313.006 87.8416 314.502 87.8416C315.726 87.8416 316.95 87.3996 318.174 86.5156C319.398 85.5636 320.486 83.9656 321.438 81.7216L323.172 82.6396C322.084 85.6996 320.418 88.2156 318.174 90.1876C315.998 92.1596 313.006 93.1456 309.198 93.1456C306.954 93.1456 304.982 92.8396 303.282 92.2276C301.582 91.6836 300.154 90.8336 298.998 89.6776C297.502 88.1816 296.516 86.3456 296.04 84.1696C295.564 81.9256 295.326 79.0356 295.326 75.4996V41.0236H286.758V38.9836H295.326V25.5196C298.182 25.5196 300.8 25.2816 303.18 24.8056C305.628 24.2616 307.906 23.4116 310.014 22.2556Z" fill="#333333"/>
<path d="M351.085 37.5556C356.049 37.5556 360.401 38.4736 364.141 40.3096C367.881 42.1456 370.805 45.1036 372.913 49.1836C375.021 53.2636 376.075 58.6696 376.075 65.4016C376.075 72.1336 375.021 77.5396 372.913 81.6196C370.805 85.6316 367.881 88.5556 364.141 90.3916C360.401 92.2276 356.049 93.1456 351.085 93.1456C346.257 93.1456 341.939 92.2276 338.131 90.3916C334.391 88.5556 331.433 85.6316 329.257 81.6196C327.149 77.5396 326.095 72.1336 326.095 65.4016C326.095 58.6696 327.149 53.2636 329.257 49.1836C331.433 45.1036 334.391 42.1456 338.131 40.3096C341.939 38.4736 346.257 37.5556 351.085 37.5556ZM351.085 39.5956C348.365 39.5956 346.087 41.6356 344.251 45.7156C342.415 49.7276 341.497 56.2896 341.497 65.4016C341.497 74.5136 342.415 81.0756 344.251 85.0876C346.087 89.0996 348.365 91.1056 351.085 91.1056C353.873 91.1056 356.151 89.0996 357.919 85.0876C359.755 81.0756 360.673 74.5136 360.673 65.4016C360.673 56.2896 359.755 49.7276 357.919 45.7156C356.151 41.6356 353.873 39.5956 351.085 39.5956Z" fill="#333333"/>
<path d="M402.255 11.8516V82.2316C402.255 85.0876 402.731 87.0256 403.683 88.0456C404.703 89.0656 406.403 89.5756 408.783 89.5756V91.7176C407.491 91.6496 405.553 91.5816 402.969 91.5136C400.385 91.3776 397.767 91.3096 395.115 91.3096C392.463 91.3096 389.777 91.3776 387.057 91.5136C384.405 91.5816 382.399 91.6496 381.039 91.7176V89.5756C383.419 89.5756 385.085 89.0656 386.037 88.0456C387.057 87.0256 387.567 85.0876 387.567 82.2316V24.0916C387.567 21.0316 387.091 18.7876 386.139 17.3596C385.255 15.8636 383.555 15.1156 381.039 15.1156V12.9736C383.215 13.1776 385.323 13.2796 387.363 13.2796C390.151 13.2796 392.803 13.1776 395.319 12.9736C397.835 12.7016 400.147 12.3276 402.255 11.8516Z" fill="#333333"/>
<path d="M438.443 37.5556C444.427 37.5556 449.118 39.3236 452.518 42.8596C455.918 46.3956 457.618 52.1756 457.618 60.1996H424.06L423.857 58.2616H444.767C444.835 54.9296 444.631 51.8696 444.155 49.0816C443.679 46.2256 442.93 43.9476 441.91 42.2476C440.89 40.5476 439.531 39.6976 437.831 39.6976C435.451 39.6976 433.411 41.1936 431.711 44.1856C430.079 47.1776 429.093 52.1416 428.753 59.0776L429.059 59.6896C428.991 60.5056 428.922 61.3556 428.854 62.2396C428.854 63.1236 428.854 64.0416 428.854 64.9936C428.854 69.6856 429.501 73.4936 430.793 76.4176C432.153 79.3416 433.852 81.4836 435.892 82.8436C437.932 84.1356 440.007 84.7816 442.115 84.7816C444.155 84.7816 446.365 84.2716 448.745 83.2516C451.193 82.2316 453.47 80.0216 455.578 76.6216L457.414 77.2336C456.598 79.8176 455.307 82.3336 453.539 84.7816C451.771 87.2296 449.526 89.2356 446.806 90.7996C444.086 92.3636 440.822 93.1456 437.014 93.1456C432.39 93.1456 428.311 92.1596 424.775 90.1876C421.239 88.2156 418.45 85.2236 416.41 81.2116C414.438 77.1996 413.452 72.0996 413.452 65.9116C413.452 59.5876 414.507 54.3176 416.615 50.1016C418.791 45.8856 421.748 42.7576 425.488 40.7176C429.296 38.6096 433.615 37.5556 438.443 37.5556Z" fill="#333333"/>
<path d="M500.871 37.5556C503.727 37.5556 506.039 37.9296 507.807 38.6776C509.643 39.3576 511.071 40.3096 512.091 41.5336C513.179 42.8256 513.961 44.4916 514.437 46.5316C514.981 48.5716 515.253 51.3256 515.253 54.7936V82.2316C515.253 85.0876 515.729 87.0256 516.681 88.0456C517.701 89.0656 519.401 89.5756 521.781 89.5756V91.7176C520.489 91.6496 518.551 91.5816 515.967 91.5136C513.383 91.3776 510.833 91.3096 508.317 91.3096C505.733 91.3096 503.183 91.3776 500.667 91.5136C498.219 91.5816 496.349 91.6496 495.057 91.7176V89.5756C497.097 89.5756 498.525 89.0656 499.341 88.0456C500.157 87.0256 500.565 85.0876 500.565 82.2316V50.5096C500.565 48.8096 500.395 47.3476 500.055 46.1236C499.715 44.8316 499.103 43.8456 498.219 43.1656C497.335 42.4176 496.009 42.0436 494.241 42.0436C491.385 42.0436 488.971 43.1656 486.999 45.4096C485.095 47.6536 484.143 50.4756 484.143 53.8756V82.2316C484.143 85.0876 484.551 87.0256 485.367 88.0456C486.251 89.0656 487.679 89.5756 489.651 89.5756V91.7176C488.427 91.6496 486.625 91.5816 484.245 91.5136C481.933 91.3776 479.519 91.3096 477.003 91.3096C474.419 91.3096 471.767 91.3776 469.047 91.5136C466.327 91.5816 464.287 91.6496 462.927 91.7176V89.5756C465.307 89.5756 466.973 89.0656 467.925 88.0456C468.945 87.0256 469.455 85.0876 469.455 82.2316V50.1016C469.455 47.0416 468.979 44.7976 468.027 43.3696C467.143 41.8736 465.443 41.1256 462.927 41.1256V38.9836C465.103 39.1876 467.211 39.2896 469.251 39.2896C472.107 39.2896 474.759 39.1876 477.207 38.9836C479.723 38.7116 482.035 38.3376 484.143 37.8616V47.0416C485.843 43.5736 488.155 41.1256 491.079 39.6976C494.003 38.2696 497.267 37.5556 500.871 37.5556Z" fill="#333333"/>
<path d="M545.778 37.5556C548.634 37.5556 551.116 37.9296 553.224 38.6776C555.4 39.3576 556.964 40.0376 557.916 40.7176C560.228 42.2816 561.656 41.2616 562.2 37.6576H564.342C564.206 39.5616 564.104 41.9076 564.036 44.6956C563.968 47.4156 563.934 51.0536 563.934 55.6096H561.792C561.452 53.0936 560.806 50.6116 559.854 48.1636C558.902 45.7156 557.508 43.7096 555.672 42.1456C553.904 40.5816 551.592 39.7996 548.736 39.7996C546.764 39.7996 545.098 40.3776 543.738 41.5336C542.378 42.6216 541.698 44.2196 541.698 46.3276C541.698 48.3676 542.31 50.1696 543.534 51.7336C544.758 53.2296 546.322 54.6916 548.226 56.1196C550.198 57.4796 552.238 58.9416 554.346 60.5056C557.746 63.0216 560.602 65.5716 562.914 68.1556C565.294 70.6716 566.484 73.9696 566.484 78.0496C566.484 81.1096 565.6 83.7956 563.832 86.1076C562.064 88.3516 559.718 90.0856 556.794 91.3096C553.938 92.5336 550.742 93.1456 547.206 93.1456C545.166 93.1456 543.33 92.9416 541.698 92.5336C540.134 92.1256 538.774 91.6156 537.618 91.0036C536.734 90.5956 535.884 90.2216 535.068 89.8816C534.32 89.4736 533.606 89.1336 532.926 88.8616C532.246 88.6576 531.634 88.8956 531.09 89.5756C530.614 90.2556 530.24 91.2076 529.968 92.4316H527.826C527.962 90.2556 528.064 87.6036 528.132 84.4756C528.2 81.3476 528.234 77.1996 528.234 72.0316H530.376C530.784 75.7036 531.532 78.9676 532.62 81.8236C533.708 84.6116 535.17 86.8216 537.006 88.4536C538.91 90.0176 541.29 90.7996 544.146 90.7996C545.914 90.7996 547.546 90.2556 549.042 89.1676C550.538 88.0116 551.286 86.1416 551.286 83.5576C551.286 80.5656 550.3 78.0836 548.328 76.1116C546.424 74.1396 543.976 71.9976 540.984 69.6856C538.808 67.9176 536.734 66.1836 534.762 64.4836C532.858 62.7156 531.294 60.8116 530.07 58.7716C528.846 56.6636 528.234 54.2836 528.234 51.6316C528.234 48.5716 529.05 45.9876 530.682 43.8796C532.314 41.7716 534.456 40.2076 537.108 39.1876C539.828 38.0996 542.718 37.5556 545.778 37.5556Z" fill="#333333"/>
</svg>
